<?xml version="1.0" standalone="no"?>
<!DOCTYPE svg PUBLIC "-//W3C//DTD SVG 20010904//EN"
 "http://www.w3.org/TR/2001/REC-SVG-20010904/DTD/svg10.dtd">
<svg version="1.0" xmlns="http://www.w3.org/2000/svg"
 width="1024.000000pt" height="1024.000000pt" viewBox="0 0 1024.000000 1024.000000"
 preserveAspectRatio="xMidYMid meet">
<metadata>
Created by potrace 1.14, written by Peter Selinger 2001-2017
</metadata>
<g transform="translate(0.000000,1024.000000) scale(0.100000,-0.100000)"
fill="#000000" stroke="none">
<path d="M2763 7683 c-18 -2 -33 -6 -33 -8 0 -10 72 -210 120 -335 29 -74 68
-175 87 -225 53 -138 241 -610 279 -701 19 -45 79 -198 133 -340 54 -143 126
-329 161 -414 34 -85 77 -195 95 -245 67 -184 175 -464 223 -580 45 -111 68
-170 169 -435 20 -52 63 -162 96 -245 33 -82 75 -188 94 -235 18 -47 42 -105
53 -130 11 -25 47 -117 81 -205 62 -162 132 -313 171 -369 12 -17 49 -60 83
-95 33 -35 59 -68 57 -75 -2 -6 0 -8 3 -4 4 4 21 0 38 -8 24 -13 27 -18 16
-26 -10 -6 -7 -7 10 -3 14 5 21 3 17 -3 -3 -5 0 -10 7 -9 6 0 21 -1 32 -2 17
-1 18 -3 5 -11 -11 -7 -8 -9 15 -8 17 0 62 -7 100 -16 79 -18 264 -21 344 -6
28 5 86 23 127 40 42 16 81 27 86 24 7 -4 8 -2 4 4 -3 6 3 16 15 23 42 22 110
92 145 150 20 33 40 57 45 54 5 -4 6 2 2 11 -5 13 -3 15 7 9 8 -5 11 -4 7 2
-8 12 37 106 46 96 4 -3 7 3 7 15 0 12 4 22 10 22 5 0 12 17 15 38 4 20 16 50
27 66 12 16 16 26 9 22 -15 -10 -14 -1 2 16 17 17 47 82 47 100 0 8 9 25 20
38 11 13 20 33 20 45 0 11 5 26 12 33 7 7 8 12 2 12 -5 0 -4 4 2 8 5 4 23 39
39 77 16 39 33 72 37 75 3 3 9 24 12 47 3 23 25 77 51 124 26 45 48 91 50 103
1 12 8 35 15 51 7 17 13 40 13 52 0 12 5 19 11 17 7 -3 12 3 13 13 1 10 7 32
14 48 7 17 13 35 14 41 0 6 9 24 20 40 11 16 20 36 21 45 1 9 14 43 30 75 15
32 27 65 25 73 -1 7 2 10 8 7 8 -5 23 35 25 69 1 6 7 21 14 33 8 13 15 38 18
54 2 17 11 39 20 49 10 11 14 19 11 19 -4 0 2 9 13 20 11 11 22 32 25 47 12
61 49 159 66 176 11 10 19 28 19 41 0 13 6 39 13 57 8 19 22 55 31 82 11 28
22 44 28 41 7 -4 8 -2 4 4 -6 10 36 133 54 157 4 6 25 53 45 105 21 52 42 100
47 106 4 6 17 35 27 65 10 30 42 108 71 174 29 66 70 163 91 215 21 52 59 145
84 205 26 61 62 147 81 193 19 46 39 91 45 100 5 9 23 53 38 97 70 195 92 252
110 285 11 19 33 71 50 115 53 143 127 316 176 415 7 14 16 39 20 57 5 27 3
32 -12 32 -10 1 -205 3 -433 6 -340 4 -424 3 -465 -9 -27 -8 -74 -21 -102 -29
-224 -64 -400 -254 -488 -527 -9 -30 -34 -98 -55 -150 -21 -52 -49 -126 -64
-165 -14 -38 -42 -113 -61 -165 -54 -144 -122 -333 -160 -445 -38 -114 -108
-310 -155 -435 -17 -47 -51 -139 -75 -205 -60 -171 -117 -325 -160 -435 -20
-52 -56 -149 -80 -215 -24 -66 -53 -137 -63 -158 l-18 -38 -42 108 c-22 59
-66 180 -98 268 -31 88 -79 220 -106 292 -27 73 -62 172 -77 220 -16 49 -40
113 -54 143 -13 30 -34 89 -46 130 -13 41 -51 145 -86 230 -34 85 -68 173 -75
195 -7 22 -21 57 -31 77 -11 21 -21 45 -23 55 -1 10 -5 25 -8 33 -21 64 -152
419 -198 540 -12 30 -32 85 -45 123 -90 255 -281 455 -515 538 -64 23 -73 24
-475 25 -225 0 -425 -1 -442 -3z m3590 -2758 c-3 -9 -8 -14 -10 -11 -3 3 -2 9
2 15 9 16 15 13 8 -4z"/>
<path d="M24 170 c0 -22 6 -30 18 -30 13 0 18 8 18 30 0 23 -5 30 -19 30 -14
0 -18 -7 -17 -30z"/>
<path d="M1 148 c-1 -23 3 -28 22 -27 15 1 17 3 5 6 -9 2 -19 14 -21 26 -4 18
-5 17 -6 -5z"/>
<path d="M51 123 c-1 -7 -12 -13 -26 -13 -24 0 -25 -3 -25 -55 l0 -55 35 0 35
0 -1 48 c0 41 -16 107 -18 75z"/>
</g>
</svg>
